<?xml version="1.0" encoding="utf-8"?>
<!-- Generator: Adobe Illustrator 19.0.1, SVG Export Plug-In . SVG Version: 6.00 Build 0)  -->
<svg version="1.1" id="Layer_1" xmlns="http://www.w3.org/2000/svg" xmlns:xlink="http://www.w3.org/1999/xlink" x="0px" y="0px"
	 viewBox="247.3 379 99.6 83" style="enable-background:new 247.3 379 99.6 83;" xml:space="preserve">
<style type="text/css">
	.st0{fill:#ffffff;}
</style>
<g>
	<path class="st0" d="M346.4,457.1l-0.3,0.1l-0.3-0.1v-0.3l-0.2-0.1l-0.4,0.1l-0.5-0.1H344l-0.2,0.1h-0.4l-0.4,0.4l-0.1-0.1h-0.4
		l-0.6,0.2h-0.8l-0.3,0.1h-0.4l-0.6,0.2l-0.2,0.3l-0.4,0.1l-0.1,0.1h-0.7l-0.5-0.1l-0.2-0.1l-0.3-0.1l-0.8,0.1l-0.2,0.1h-0.2
		l-0.8,0.3l-0.3-0.1l-0.5-0.1l-0.1,0.2v0.6l-0.2,0.1v0.3l-0.3,0.1l-0.3,0.1l-0.3-0.1l0.1-0.2l-0.3-0.3v-0.2l0.3-0.2l0.2-0.4v-0.2
		l-0.3-0.1l-0.3,0.2v0.1l-0.5,0.1l-0.4-0.2l-0.6-0.2h-0.2l-0.7,0.8l-0.1,0.3l-0.2,0.1l-0.1-0.1h-0.1l-0.4,0.2l-1.4,0.2L328,459
		l-0.5-0.7h-0.3l-0.8-0.4h-0.6l-0.7,0.1l0.1,0.3l-0.1,0.2v0.4L325,459l-0.3-0.1l-0.2,0.2h-0.3l-0.2,0.1l-0.4,0.1l-0.4-0.1l-0.1,0.1
		l-0.3-0.3v-0.2l-0.1-0.2l0.1-0.1v-0.2h-0.2l-0.1,0.2l-0.3-0.2H322l-0.2-0.2h-0.2l-0.2,0.3l-0.2,0.2l-0.1-0.1v-0.2l-0.2,0.1h-0.4
		l-0.3,0.1H320l0.1-0.2h0.5l0.3-0.1l0.2-0.2v-0.1h-0.7l-0.5,0.1l-0.2-0.1l0.1-0.2l0.2,0.1l0.1-0.2L320,457h-0.2v-0.2l-0.2-0.2
		l0.3-0.2l-0.1-0.4l-0.4-0.2h-0.2l-0.3-0.3l-0.1,0.1l-0.3-0.2v-0.2l0.1-0.2l-0.1-0.3l0.1-0.3l0.1,0.1l0.2,0.4h0.2l0.1-0.3l0.2-0.1
		h-0.2l-0.1-0.1l0.4-0.2l0.2-0.2v-0.2l-0.3,0.2l-0.1-0.1v-0.1v-0.2l-0.2-0.2v-0.2l0.4-0.3h-0.4l-0.3,0.1h-0.1l-0.4,0.1l-0.1-0.2
		l0.1-0.1v-0.3l-0.1-0.2l0.1-0.3l0.1-0.3l0.7-0.5h0.4l0.4,0.3h0.3l0.3-0.3h0.2l0.2,0.3l0.4-0.2l0.3,0.2h0.7l0.2-0.1l-0.1-0.2
		l-0.3,0.1l-0.1-0.2l0.2-0.3l0.6-0.2h0.6l0.1-0.2l-0.4-0.1h-0.4l-0.3-0.5l0.1-0.2l0.4-0.1l0.2,0.1l0.5-0.1l0.3,0.1l0.2-0.1h0.3
		l0.8,0.3h0.6v-0.2l0.1-0.1l0.2-0.4l0.1-0.1l0.3-0.3l0.3-0.1l0.2-0.2l0.6-0.1h0.3l0.7-0.3l0.4-0.1h0.8l0.3-0.1l0.2,0.1h0.5l0.4-0.2
		h0.1v0.3l0.6,0.5l0.1-0.1l0.1,0.1l0.4-0.4h0.2l0.2,0.2l0.1,0.4l0.3,0.4l0.3,0.1l0.1-0.2h0.2l0.5,0.4h0.3l0.6,0.3l0.2-0.1l0.4,0.2
		l0.5,0.1l0.7-0.3h0.6l0.3-0.1l0.1,0.1h0.2l0.2,0.1l0.6,0.1l0.2-0.2h0.5l0.1-0.2l0.5-0.3l0.4-0.2l0.2-0.4l0.1-0.1h0.2l0.1,0.3
		l0.2,0.1l0.1-0.2l0.4,0.2h0.2l0.2-0.2l0.3,0.1l0.7,0.6l0.3,0.1l0.3,0.3v0.2l0.3,0.1l0.2,0.3l-0.1,0.5v0.6l0.5,0.3h0.5h0.3l0.3,0.3
		l0.2,0.3l-0.2,0.1l-0.2,0.4h-0.4v0.2l0.2,0.3l0.1,0.6v0.3v0.4h0.4l0.1,0.2l-0.2,0.5v0.5v0.2l0.4,0.2l0.3,0.6l0.1,0.4L346.4,457.1z
		 M300.6,444l-0.3-0.3l0.2,0.1L300.6,444z M300,442.2l0.5,0.7l-0.2,0.1l-0.1-0.2l-0.2-0.1v-0.4C299.9,442.3,300,442.2,300,442.2z
		 M300.2,443.1l0.1,0.4h-0.1l-0.3-0.3l0.1-0.1l-0.2-0.3L300.2,443.1z M301.1,444.8l-0.4-0.5l0.3,0.3L301.1,444.8z M300.7,443.3
		l0.3,0.3l-0.3-0.1V443.3z M301.3,444l-0.1,0.1l-0.3-0.4h0.2L301.3,444z M304.3,446.6h-0.5l-0.3-0.1h0.5L304.3,446.6z M303.2,445.7
		h0.6l0.1,0.1l-0.3,0.1h-0.3L303.2,445.7z M303.6,446.2l-0.5-0.2h0.8L303.6,446.2z M322.6,439.3h-0.5l-0.2-0.2l-0.4,0.1h-0.3v0.6
		v0.4H321l-0.3,0.5v0.3l-0.3-0.1l-0.2,0.2l0,0l0.3,0.5l0.4,0.1h0.6l0.3-0.2h0.5l0.3,0.2l-0.2,0.2l0.2,0.1v0.2l-0.2,0.4l-0.3,0.1
		h-0.5l-0.1,0.3l-0.2,0.2l0.1,0.2v0.5l-0.2,0.3l0.1,0.4v0.1l-0.1,0.6l-0.2,0.2h-0.3l-0.4,0.4l0.1,0.7l-0.1,0.3l-0.4,0.3l0.1,0.2h0.3
		l0.3,0.4l0.2,0.4l0,0v0.6l0.5,0.4h0.3l0.4,0.4l0.3,0.2v0.2l-0.3,0.3h-0.4l-0.2-0.1H321l-0.1,0.1h-0.5l-0.3,0.1l-0.2,0.4l-0.8,0.4
		l-0.7,0.6v-0.2l0.2-0.5h0.2l0.3-0.2h-0.3l-0.2-0.1h-0.2l-0.3-0.2l-0.1-0.3l0,0l-0.5-0.1h-0.6l-0.2-0.2h-0.1v0.2l-0.3,0.3H316
		l-0.3-0.3l-0.2,0.1l-0.1,0.4l-0.2,0.1l-0.3-0.1l-0.2,0.2l0.3,0.3h0.3l0.3,0.3l-0.1,0.1l-0.2-0.2h-0.6v0.2l0.2,0.1l0.2,0.2l-0.1,0.2
		l-0.2-0.1l-0.2-0.3l-0.3-0.1v0.2l0.1,0.2l0.3,0.2h-0.3l-0.3-0.2v-0.4l-0.5-0.2v-0.2h0.2v-0.3l-0.4,0.1l-0.2,0.3l0.1,0.6l-0.1,0.2
		l0.4,0.3v0.2l0.2,0.2l0.5,0.6l0.2,0.2l-0.1,0.4h-0.2v-0.2l0.1-0.2l-0.2-0.2l-0.2-0.1v0.2l-0.2,0.2l0.3,0.1v0.2l-0.2,0.2h-0.3
		l0.3,0.3h0.3l0.1,0.2h0.2l0.1,0.2l0.2,0.1l0.7,0.4l0.1,0.2l-0.1,0.4l0.3,0.4l-0.1,0.2h-0.3v-0.1l-0.4-0.3l-0.2,0.1h-0.3l-0.3,0.1
		l0.3,0.2v0.2l0.3,0.2h0.1v0.1l0.1,0.1v0.1l-0.4-0.1l-0.2,0.2l-0.1-0.1l0.1-0.1L314,457h-0.2v0.1l0.2,0.3l0.2,0.5l0.2,0.3v0.2
		l0.2,0.3l-0.5-0.3l-0.1-0.3h-0.3l-0.2,0.4v0.4l-0.2-0.2l0.1-0.3l-0.1-0.2l-0.4-0.2l-0.1-0.3l-0.1,0.3l0.1,0.2l-0.1,0.2l-0.2-0.2
		l-0.3-0.4v-0.3l0.1-0.2v-0.2l-0.3-0.3l-0.3-0.2l-0.3-0.4l0.1-0.3h0.2l0.2-0.3l0.3,0.1l0.3-0.2l0.3-0.1l0.6,0.4l0.3,0.1l0.2,0.2
		l0.2-0.2l0.2-0.1l-0.3-0.1l-0.2-0.1h-0.2v-0.2l-0.2,0.1l-0.4-0.2h-0.3l-0.2,0.2h-0.4l-0.2-0.3l-0.3,0.3l-0.2-0.1l-0.1-0.4l-0.4-0.6
		v-0.1h-0.2l-0.3-0.5l-0.6-0.4V453l0,0l-0.3-0.2l-0.3-0.7h-0.6l-0.2-0.2l0.1-0.4l-0.2-0.3v-0.4l0.1-0.3l-0.2-0.5l0.1-0.7l0.1-0.1
		V449l-0.5-0.2l-0.4-0.2v-0.2l-0.6-0.7l-0.3-0.1l-0.1-0.1l-0.3-0.4l-0.2,0.1l-0.6-0.1h-0.2l-0.3-0.1l-0.2-0.2l0.4,0.2h0.2l-0.8-0.8
		l-0.4-0.2l-0.7-0.1L303,446l-0.2-0.2l-0.1-0.3l-0.3-0.1l-0.3-0.3h-0.3l-0.1-0.3l0.1-0.3h0.3l0.2,0.1l-0.3-0.3h-0.1l-0.5-0.4
		l-0.2-0.4l-0.1-0.5l-0.3-0.2l-0.1-0.3h-0.4l-0.2,0.3l-0.1,0.3l-0.4,0.6L299,443v-0.1l-0.4-0.3l-0.1-0.6l0,0v-0.3l0.3-0.1v-0.2
		l-0.3-0.1l0,0l-0.4-0.1l-0.2,0.1l-0.2,0.2h-0.3l-0.3,0.3h-0.3l-0.1,0.2l0.2,0.3l0.2,0.3l-0.2,0.4l-0.1,0.1l0.2,0.4v0.4l0.2,0.2
		l0.7,0.4l0.4,0.2l0.2,0.3l1,1v0.3l0.1,0.1v0.3l0.2,0.3l0.3,0.3l0.2,0.3l0.5,0.4l0.2,0.2l0.3,0.1l0.2,0.1h0.6l0.2,0.1l0.4-0.1
		l0.3,0.1l-0.1,0.2l-0.4,0.3v0.1l0.2,0.2h0.3l0.6,0.1l1.2,0.7l0.5,0.4l0.3,0.3l0.5,0.1l0.3,0.2l0.1,0.2v0.4l-0.1,0.2v0.3l-0.1,0.1
		v0.1l-0.3-0.1l-0.2-0.3l-0.1-0.3v-0.2l-0.2-0.1H305l-0.1-0.1l-0.3-0.2h-0.2l-0.1,0.1l-0.1,0.4l-0.2,0.2v0.2l-0.1,0.2l-0.2,0.2v0.2
		l0.1,0.2h0.3l0.4,0.4l0.1,0.2l-0.1,0.4l0.1,0.1l-0.1,0.2l-0.3,0.1l-0.3,0.3v0.7l-0.4,0.3l-0.1,0.3l-0.2,0.3h-0.5l-0.3-0.3v-0.2
		l0.1-0.1l0.2-0.1l0.2-0.2v-0.3v-0.3l0.1-0.1h0.1l0.2-0.2V454l-0.2-0.3l-0.1-0.6l-0.2-0.2l-0.1-0.5l-0.1-0.5l-0.2-0.1l-0.2,0.1
		l-0.4-0.1l-0.1-0.3h-0.3l-0.2-0.2l0.1-0.1v-0.3l-0.2-0.3h-0.3h-0.3v-0.2l-0.3-0.1l-0.2,0.1l-0.2-0.1l-0.3-0.6h-0.3l-0.3-0.1
		l-0.2,0.2h-0.3l-0.1-0.3l-0.3-0.2h-0.3l-0.6-0.5l-0.6-0.8l-0.2-0.1l-0.1-0.2l-0.3-0.4h-0.5V447l-0.4-0.4l-0.2-0.3l-0.4-0.2v-0.4
		l-0.3-0.2v-0.3l-0.3-0.5l-0.1-0.2l-0.1-0.2l-0.1-0.2L293,444l-0.3-0.2l-1-0.3l-0.8,0.4v0.3l-0.3,0.3l-0.8,0.1h-0.1l-1,0.7l-0.3,0.3
		l0.1,0.2l-0.3,0.2h-0.7l-0.3-0.2l-1-0.6H286l-0.2,0.2h-0.3l-0.4-0.2h-0.4l-0.2-0.1h-0.2l-0.5,0.6l-0.4,0.3v0.3l-0.1,0.5l0.1,0.4
		v0.2v0.2l-0.2,0.2l0.1,0.5v0.4l-0.2,0.3l-0.6,0.4c0,0-0.2,0.3-0.3,0.3l-0.5,0.2h-0.6l-0.4,0.3l-0.4,0.2l0.2,0.1l-0.1,0.4l-0.2,0.1
		l0,0h0.1l-0.2-0.1l-0.5,0.8l-0.3,0.2l-0.6,1l-0.2,0.2l0.3,0.4l0.1,0.3l0.2,0.1l0.4,0.5l-0.3,0.3l-0.5,0.1v0.4l-0.5,0.7l-0.1,0.5
		l0.1,0.1l-0.1,0.2h-0.5l-1,0.4v0.3l-0.4,0.6l-0.3-0.2l-0.3-0.3l-0.2,0.3l-0.2,0.2l-0.3-0.2h-0.3l-0.1,0.1h-0.4l-0.6-0.2l-0.3,0.1
		l-0.6,0.1l-0.5,0.5l-0.6,0.1l-0.2,0.2v0.3l-0.5,0.2l-0.5-0.1l-0.5-0.5l-0.3-0.7l0.1-0.1l-0.6-0.6l-0.5-0.1l-0.3-0.1l0,0l-0.1,0.1
		h-0.4l-0.5,0.3l-0.3-0.2l-0.7-0.3l-0.5,0.3l-0.1-0.1l0.1-0.2l0.2-0.6v-0.8l0.2-0.4l-0.1-0.4l0.2-0.2h-0.4l-0.2,0.2l-0.1-0.2v-0.3
		l0.5-0.2l-0.1-0.2v-0.2l-0.3,0.2l-0.2,0.2h-0.3v-0.2l0.2-0.9l0.4-0.6V452l0.4-0.5V451l0.2-0.4l0.2-0.2l-0.2-0.3l0.1-0.4l-0.1-0.2
		l0.1-1l-0.2-0.5v-0.3v-0.1l0.4-0.3h-0.3l0.2-0.2l-0.1-0.1l0.1-0.3l-0.2,0.2h-0.1l0.1-0.4l-0.1-0.1v-0.2l-0.2,0.1l-0.1-0.3l0.2-0.3
		l0.6-0.2l0.2,0.1l0.5-0.1l0.2-0.2l-0.2-0.1V445l0.6-0.3l0.1,0.1l0.2-0.2l0.4,0.1l0.3,0.4l0.3-0.2h0.3l0.4,0.2l0.4-0.2l0.5-0.1
		l0.1,0.1l0.4,0.2l1.1,0.2l0.5,0.1l0.8-0.3h0.6l0.1,0.2l0.6,0.1l0.3-0.3h0.3l0.8,0.5l0.2-0.2h0.2l0.1-0.1l0.4-0.2l0.3-0.9l0.1-1.1
		l0.2-0.2l-0.2-0.2v-0.6l0.2-0.8l0.2-0.1l0.3,0.2l0.1,0.4l0.4,0.4l-0.4-0.9l-0.5-0.4l-0.3-0.1l0.1-0.3h0.1l0.1-0.3L278,440v-0.3
		l-0.4-0.2l-0.4-0.1l-0.4-0.5h-0.3l-0.1-0.2l0.1-0.3l-0.1-0.3l-0.2-0.1l0.2-0.2h0.3l0.2,0.1l-0.2-0.3h-0.3l-0.3,0.2h-0.2l-0.1-0.2
		l0.1-0.3l-0.2-0.2l-0.3,0.2l-0.1-0.1l0.1-0.2h-0.2l-0.3,0.2l-0.3-0.2h-0.2l-0.1-0.2l-0.5-0.2h-0.2l-0.2-0.1l-0.3,0.2v-0.2l-0.1-0.3
		h-0.3v-0.1l0.3-0.1l0.2-0.1v-0.2l-0.2-0.1l-0.1,0.2l-0.1-0.3h0.2l0.3,0.1l-0.1-0.1l-0.3-0.1l-0.3,0.1l-0.1-0.2l0.2-0.2h0.5l0.2-0.2
		h0.3l0.2,0.1l0.2-0.2l0.2,0.1l0.3-0.3l0.4-0.1l0.3,0.1l0.4,0.6l0.3-0.3l0.1,0.1l0.3-0.1l0.2,0.1l0.2-0.1l0.5,0.1v-0.3l-0.2-0.2
		l0.1-0.2l-0.1-0.2l0.1-0.2l-0.5-0.5l0.1-0.2l-0.1-0.4l0.2,0.1h0.4l0.3-0.1l0.2,0.1l-0.1,0.2l0.2,0.2l0.1,0.2l0.2-0.1l0.3,0.1
		l0.6,0.1l0.5-0.1l0.4-0.3l-0.3-0.1l-0.1-0.2l0.1-0.3l0.6-0.3l0.3,0.1h0.3l0.5-0.1v-0.2l0.5-0.4l0.1-0.6l-0.1-0.4l0.1-0.3l0.5-0.3
		l0.1,0.1l0.6-0.2v-0.1l0.2-0.4l0.3-0.3l0,0h0.3l0.4,0.1h0.2l0.3,0.1l-0.3-0.2h-0.1l-0.2-0.2H284l-0.1-0.1l0.3-0.1l0.3,0.1l0.3,0.3
		h0.3V429h-0.2l-0.1-0.2l0.1-0.1l0.2-0.1h0.4l-0.3-0.1l-0.4-0.3V428l0.2-0.2l0.1-0.2l0.1-0.3l0.1-0.3l-0.1-0.4l0.3-0.2V426l0.3-0.1
		l0.1,0.1l0.6-0.3l0.4-0.4h0.4l0.2-0.1l0.3,0.1l0.3-0.2l0.5-0.1l0.4,0.2l0.2,0.2l0.3,0.1l0,0l-0.1-0.3l-0.3-0.1l-0.1-0.3l0.1-0.3
		l0.7-0.2l0.2-0.1l0.3,0.2v0.4l0.3,0.3l0.2-0.2l-0.1-0.3v-0.2l0.1-0.1l0.2,0.2v0.4l0.3,0.4l-0.1-0.3v-0.4l-0.1-0.3l0.2-0.3h0.2
		l0.3,0.1l0.3-0.1l0.5,0.5l0.7,0.1l-0.6-0.3l-0.5-0.5h-0.4l-0.2-0.1v-0.2l0.2-0.2l-0.3-0.2v-0.4l-0.3,0.1v-0.3h0.3l0.3-0.1l-0.3-0.3
		v-0.2h-0.2l-0.2-0.1v-0.3v-0.1l-0.1-0.2l0.1-0.1l-0.1-0.5l-0.4-0.3l-0.3,0.1l-0.2-0.1l0.2-0.4l0.4-0.2l-0.2-0.2v-0.4l-0.2-0.1
		l-0.1-0.4h0.1l0.2,0.2v-0.3l-0.3-0.2l0.2-0.2l0.2,0.1h0.3l0.2,0.2l0.3-0.2l-0.1-0.2l0.2-0.3h0.1l0.2,0.3l-0.2,0.2v0.1l0.3-0.1
		l0.2,0.1v-0.1l-0.2-0.3l0.1-0.1l-0.3-0.4l0.1-0.1h0.3l0.2-0.1h0.5l0.3,0.2v0.3l-0.1,0.2h0.2l0.2,0.2l0.2,0.2h0.4l0.2-0.1l0.3,0.3
		l-0.1,0.3l-0.1,0.2h-0.1l-0.1,0.1l-0.2-0.2h-0.3l-0.2,0.2l0.1,0.3v0.4l-0.3,0.1l-0.1-0.1l-0.2,0.2l0.1,0.1l-0.6,0.3v0.2l0.2,0.1
		v0.2l-0.2,0.2v0.2h0.1l0.2,0.2l-0.1,0.2l0,0l0.3,0.3h0.3l-0.2,0.4l-0.2,0.2l0.1,0.2l0.2,0.1l0.1,0.3l0.2-0.2l0.1-0.2l0.1-0.1
		l0.1,0.2l0.4,0.3l0.1-0.1l0.2-0.2l0.1,0.1v0.3l-0.2,0.2h-0.2l-0.3,0.2l0.4,0.1l0.1-0.1h0.3l0.1,0.2h0.3l0.1-0.2l0.2-0.3l0.6-0.1
		v-0.1l0.3-0.2v-0.2l0.1-0.1h0.4l-0.3,0.1l-0.1,0.1h-0.1l-0.2,0.2l0.1,0.1l0.3-0.2h0.3l0.1-0.1l0.1,0.2h0.3l0.4,0.4l0.3-0.1l0.2,0.3
		L298,424l0.3,0.2h0.3l0.2,0.2h0.3h0.2v-0.2l0.1-0.1l0.1-0.4l0.2-0.4h0.5l0.7-0.4h0.5v-0.2l0.3-0.3h0.5l0.3-0.4l0.5-0.2h0.5l0.6-0.3
		l0.8,0.2l0.4,0.2v0.1l-0.2-0.1h-0.4l-0.1,0.3l0.1,0.4l0.7,0.2l0.6-0.3l0.3-0.3h0.1l-0.4,0.4l-0.5,0.2l0.1,0.1l0.5-0.1l0.5-0.5
		l0.2-0.1l2,0.1l1.8-0.2l-0.1-0.5l0.2-0.2l-0.2-0.2h-0.2l-0.1-0.3l-0.2-0.1l-0.6,0.1l-0.4-0.2l-0.4-0.6l-0.5,0.1H308l0.1-0.2
		l-0.1-0.4v-0.5V419l-0.2-0.2l-0.2-0.7l0.2-0.2v-0.3v-0.3l0.4-0.5v-0.5h0.1V416l0.2-0.4h0.3l0.2-0.1l0.4-0.1l0.3-0.3h0.1v0.5
		l0.7,0.8v0.3l0.4,0.4h0.4l0.5-0.5l0.2-0.5l-0.1-0.7V415v-0.2l0.2-0.8l-0.1-0.2l-0.3,0.2v0.3h-0.2l-0.4-0.4l-0.3-0.4v-0.4h0.2
		l0.1-0.2h-0.3l-0.1,0.1h-0.2v-1l0.2-0.3l0.5-0.2h0.2v-0.3l0.3-0.1h0.3l0.1-0.3l0.1,0.1h0.6l0.1,0.1l0.3-0.2l-0.2-0.2v-0.1h0.2v-0.2
		l0.3,0.3l0.3-0.1l0.3,0.2h0.6l0.6,0.4h1.3V411l0.1,0.3v0.1v0.1l-0.2,0.3l-0.1,0.4l-0.2,0.1l-0.1,1.2l0.7,1.3v0.3l-0.2,0.2v0.3
		l-0.2,0.3l-0.5-0.1l0.8,0.1v0.3l-0.1,0.1l0.1,0.1l0.1,0.3v0.2l0.2,0.4l0.1,0.1l0.2,0.5l0.2,0.3l0.1,0.4l-0.3,0.1l-0.1,0.3l-0.3,0.1
		l-0.1,0.4l-0.7,0.1l-0.5,0.2l0,0l-0.4,0.5l0.2,0.1v0.3l-0.5,0.2l-0.3,0.5h-0.2l-0.1,0.5l0.4,0.2v0.3h-0.3l-0.1-0.2l-0.3,0.1
		l-0.2,0.4h-0.5l0.2,0.5h-0.3l-0.4,0.2l-0.4-0.2l-0.6,0.2l-0.3,0.2l0.1,0.1l0.2,0.7l0.2,0.3l0.1,0.4l0.2,0.2v1l-0.3,0.1l-0.2,0.4
		l0.1,0.5l0.3,0.5v0.4v0.7l0.2,0.2l0.2,0.5l0.4,0.2l-0.1,0.2v0.2l0.1,0.2l-0.1,0.5h-0.3l-0.2,0.2l-0.1,0.5l-1,1.1l0.1,0.4v0.5h-0.3
		l-0.3,0.7l-0.1,0.5h-0.1l0.4,0.4l0.4,0.3l0.1,0.3h0.3l0.2-0.2h0.3l0.6,0.3h0.4l0.4,0.2l0.1,0.2l0.3,0.2l0.5-0.2h0.3l0.3-0.3
		l1.1-0.2l0.4-0.2l1-0.2l-0.6,0.1l-0.1-0.4l0.1-0.2l-0.1-0.4l0.2,0.1l0.1-0.1l0.3,0.2l0.1-0.2h0.3l0.1-0.1l0.2,0.4h0.4l0.5,0.4
		l0.5,0.1l0.1-0.2h0.1l0.5,0.5l0.4,0.2l0.1,0.6v0.4l0.4,0.2l0.1,0.2l0.4,0.3l0.5,0.3l0.1,0.3l-0.1,0.3l0.2,0.3L322.6,439.3z
		 M292.9,438.4h-0.2h0.4H292.9z M298.6,440.1l0.4-0.5l0,0L298.6,440.1z M299.9,430.6L299.9,430.6l0.1-0.2L299.9,430.6z M303.1,440.1
		L303.1,440.1l-0.1-0.6L303.1,440.1z M302.7,435.2l0.6,0.1h0.1L302.7,435.2z M307.4,434.2l-0.1-0.4L307.4,434.2L307.4,434.2z
		 M307.4,445.4L307.4,445.4l0.1-0.1L307.4,445.4z M308.7,447.1v-0.2V447.1L308.7,447.1z M308.5,440.5l-0.2-0.1l0.5,0.2L308.5,440.5z
		 M309.5,448.5l0.1,0.1v0.1L309.5,448.5z M310.4,450.8l-0.1,0.4L310.4,450.8L310.4,450.8z M312.2,443.9l-0.1-0.3l0.2,0.6
		L312.2,443.9z M318.4,448.4l-0.1,0.4L318.4,448.4L318.4,448.4z M308.4,409.3l0.5-0.1v0.2l-0.3,0.2l-0.2-0.1V409.3z M309.2,409.9
		h-0.1v-0.2C309.1,409.6,309.2,409.9,309.2,409.9z M309.2,410.2l0.1-0.1l0.1-0.2l0.1,0.2l-0.2,0.1H309.2z M309.9,412.8l0.1,0.3
		l-0.2-0.1l-0.3,0.2l-0.1,0.2l-0.2-0.3h-0.3l-0.3,0.1l-0.1-0.1l0.5-0.2l0.1-0.2v-0.1h0.2l0.2,0.2H309.9z M310.3,412.6l0.1,0.2h-0.3
		l-0.1-0.2H310.3z M310.6,413.8l-0.2,0.1l-0.4-0.3v-0.2h0.4L310.6,413.8z M308.5,414l0.2-0.1v-0.1l0.2,0.1l0.1,0.2l0.2-0.2h0.1
		l0.2-0.2l0.1,0.1h0.5l0.2,0.2l0.2,0.1l0.1,0.1h-0.1h-0.2l-0.2,0.3l-0.2,0.2l-0.4,0.1l-0.2,0.4v0.2l-0.2,0.2H309l0.1-0.4h0.1
		l0.1-0.2l-0.2-0.2l-0.2-0.1v-0.2l0.2-0.1v-0.2L308.5,414z M307.9,409.2l-0.1-0.1v-0.3l0.3,0.3L307.9,409.2z M307.2,409.1l-0.1-0.1
		h0.3L307.2,409.1z M310.7,397.3h-0.3l-0.2-0.3l0.3-0.2l0.5,0.1v0.1h-0.3l0.1,0.2L310.7,397.3z M306.4,401.4l0.2,0.2l-0.1,0.1
		l-0.1-0.1V401.4z M306.6,402.1l-0.3,0.2l-0.2-0.2l0.1-0.3l0.2,0.2l0.2-0.1L306.6,402.1z M303.6,411.5h0.4v0.3l-0.3,0.3v0.4
		l-0.1-0.1l-0.2-0.4L303.6,411.5z M304.8,414.1l0.2,0.1l-0.2,0.2l-0.1-0.3L304.8,414.1z M304.9,415.7l-0.1-0.1l0.2-0.2h0.3l0.1,0.1
		l-0.3,0.1L304.9,415.7z M305.9,409.8l0.1,0.3l-0.2,0.1l-0.3-0.2l-0.3-0.1l-0.2-0.2l-0.2-0.1l0.1-0.2l0.4,0.1l0.1-0.1l-0.2-0.2V409
		h0.2l0.5,0.3v0.2h-0.2l-0.1,0.1l0.2,0.3L305.9,409.8z M303.5,417l0.1-0.1l-0.1-0.4l0.2-0.2l0.1-0.3l0.2-0.3h0.3l0.2-0.1l0.2,0.1
		l-0.1,0.1v0.2l-0.1,0.3l0.2,0.2v0.1l-0.2,0.3v0.2l-0.4,0.3l-0.1,0.2l0.1,0.1l-0.1,0.2l-0.4,0.1v-0.1l0.2-0.2l0.1-0.3h-0.1
		L303.5,417z M301.9,417.1l0.2,0.2l-0.1,0.5l-0.2,0.5l-0.1,0.5l-0.2,0.5l-0.1,0.3l-0.1-0.1v-0.2V419l0.1-0.8l0.2-0.1l0.1-0.5v-0.1
		L301.9,417.1z M299.4,421.4l0.3,0.4l-0.1,0.3l-0.5-0.2l-0.1-0.3l0.1-0.4L299.4,421.4z M297.7,423.4l-0.2-0.1l-0.2,0.3l-0.3-0.1
		l-0.1-0.1l0.1-0.2l0.2-0.1l0.1-0.1h-0.2v-0.2l0.2-0.1l0.1,0.1l0.1-0.1h0.2l-0.1,0.3l0.1,0.2L297.7,423.4z M293.6,417l0.1-0.2h0.3
		l-0.3,0.2H293.6z M294.3,415.1h0.2l-0.1,0.3h-0.2L294.3,415.1z M296.2,421l-0.2-0.1l0.1-0.3L296.2,421z M295.9,422.1h-0.2l-0.1,0.2
		l-0.1-0.1l0.1-0.2l0.2-0.1L295.9,422.1z M295.3,422.1h-0.2l-0.1-0.2l0.1-0.2l-0.1-0.1l-0.4-0.1h-0.2l-0.2-0.2V421l-0.1-0.2v-0.2
		l0.2-0.1l0.1-0.2l0.1-0.1l0.1,0.2v0.1l0.3,0.2l0.1-0.1h0.2v-0.2l-0.2-0.2l-0.1-0.1l0.1-0.3l0.4-0.1h0.4l0.1,0.3v0.3l-0.1,0.4
		l-0.3,0.2v0.1l0.3,0.2l0.1,0.2l-0.2,0.1l-0.3,0.1v0.2L295.3,422.1z M295.2,422.9l-0.1-0.2l-0.2,0.2h-0.4l-0.4-0.2l-0.1-0.2l0.2-0.1
		l-0.1-0.1l0.1-0.2h0.2l0.3,0.4l0.2-0.1h0.2l0.1-0.2h0.3h0.1l0.1,0.2l-0.1,0.3L295.2,422.9L295.2,422.9z M293.7,421.8l0.2,0.2
		l-0.2,0.4l-0.2,0.2l-0.1-0.1l0.1-0.2L293.7,421.8z M293.3,422.5l-0.2-0.2l0.3,0.1L293.3,422.5z M293.3,420.4V420l0.1,0.4v0.2
		l-0.2,0.1L293.3,420.4z M293.6,421.7l-0.2,0.4l-0.3,0.1l-0.2-0.1h-0.3l-0.3-0.3l-0.2-0.3l0.1-0.4l0.5-0.1l0.3,0.2h0.2l0.2,0.4
		L293.6,421.7z M291.2,418.2l-0.2,0.3l-0.2,0.1v-0.3l0.2-0.2h0.3L291.2,418.2z M290.3,418.3l-0.1,0.1l-0.1-0.1l0.2-0.2l0.1-0.3h0.2
		l0.1,0.1l0.4-0.3h0.3l0.3-0.2l0.2-0.4l0.2-0.3h0.3l0.4-0.2l0.4-0.4v0.1l-0.2,0.4l0.1,0.3L293,417l0.1,0.3l-0.3,0.5l-0.2,0.1
		l-0.3-0.1H292l-0.2,0.1l-0.3-0.1h-0.3l-0.1-0.1l-0.5,0.3l-0.1,0.2l0.1,0.4L290.3,418.3z M286.4,412.9l-0.2,0.1v-0.3L286.4,412.9z
		 M285.7,410.2v0.3h-0.2L285.7,410.2z M285.5,411l0.2-0.1l0.2,0.2l-0.1,0.2L285.5,411z M286,410.6h-0.1l0.1-0.3V410.6z M285.7,409.5
		l0.2,0.3l-0.1,0.3L285.7,409.5z M318.9,405l-0.3,0.8l-0.4,0.7l-0.4,0.7l-0.4,0.2l-0.7,0.7l0.1,0.4c-0.1,0.1-0.1,0.3-0.1,0.3
		l-0.3-0.1v-0.2l-0.2-0.1l-0.1,0.1l0.1,0.1v0.2l-0.5,0.1l-0.2-0.2l-0.4,0.1l-0.2,0.2l-0.1-0.2h-0.2v0.2l-0.2,0.1l-0.2-0.3l-0.1,0.2
		h-0.2l-0.2-0.3l-0.1,0.1l0.1,0.3h-0.1l-0.2,0.4l-0.2-0.1l0.1-0.3l-0.1-0.1l-0.2,0.4h-0.3l-0.4-0.1v0.2l-0.6,0.4h-0.3l-0.5,0.4h-0.2
		l-0.3,0.1v-0.2l-0.2,0.1l-0.2,0.5l-0.1-0.1l0.1-0.3l-0.1-0.2l-0.4-0.6l0.2-0.3V409l-0.4,0.3h-0.2l0.1-0.2L309,409h-0.5l-0.2-0.2
		h-0.2l-0.4-0.4l-0.1,0.2l-0.2-0.1l-0.4,0.2l-0.1-0.2v-0.2l0.2-0.3l-0.2-0.2v-0.6l0.1-0.2v-0.5l0.2-0.1L307,406l0.1-0.2l-0.2-0.1
		l-0.3-0.5l0.1-0.1l-0.1-0.3l0.1-0.2l0.1-0.3l-0.2-0.2l-0.2,0.1l-0.1-0.2l0.1-0.3l-0.1-0.1l-0.1-0.3l0.2-0.3h0.1l0.1-0.3l-0.1-0.3
		l0.2-0.1l-0.1-0.3l0.2-0.1l0.2,0.1v0.1l0.1,0.1l0.3-0.2l0.1-0.2l0.2-0.2v-0.1l-0.2-0.2l0.1-0.1l0.2,0.1v-0.2l0.1-0.3l0.2-0.1
		l0.1,0.1l0.4,0.1l-0.2-0.2l-0.1-0.4l0.2-0.3h0.3l0.1-0.2l-0.1-0.3h0.1l0.1,0.2h0.1l0.1-0.5l0.5-0.5l0.1-0.1v-0.2l0.3-0.3v-0.2
		l0.4-0.3h0.4l0.5,0.3v-0.2l-0.4-0.3h0.1l0.3,0.1l-0.5-0.4l0.1-0.1v-0.5l0-0.5l0.2-0.1l-0.4-0.4h-0.6l-0.3-0.3h-0.3l-0.1-0.1l0,0
		l-0.2,0.1H309l-0.2-0.2l-0.4,0.2l-0.2-0.1l-0.1,0.3l-0.3-0.1l-0.1-0.3l-0.3,0.3l-0.2-0.3l-0.2,0.1v0.3l-0.1,0.2l-0.2,0.1l-0.1-0.2
		l-0.2-0.1l0.2,0.4l0.2,0.1l-0.3,0.2h-0.3l-0.2,0.1l0.3,0.1v0.2h-0.1l-0.1-0.1l-0.2-0.1l-0.1,0.1l0.1,0.2h0.2l0.2,0.2l-0.1,0.2
		l-0.2,0.5l0.1,0.2l-0.4,0.1l0.3,0.2h0.3l0.1,0.2l-0.2,0.1l0.2,0.2h0.2l-0.3,0.4h-0.2l-0.2,0.3v0.5l-0.3,0.5h-0.2l-0.3,0.3l-0.2-0.2
		v0.3l0.1,0.3l-0.4,0.2l-0.2,0.3h-0.2v-0.2H304l-0.1,0.3v0.4l-0.2,0.2l-0.1-0.2h-0.1l-0.1,0.3h-0.1l-0.1-0.2l-0.2,0.2l-0.1,0.3h0.2
		v0.2l-0.4,0.4l-0.3-0.1l-0.1,0.2l0.1,0.3l-0.3,0.4l-0.5,0.1l-0.2-0.1l0.4,0.5v0.4l-0.1,0.1l0.1,0.4l-0.1,0.5l0.2,0.2v0.3l-0.2-0.2
		l-0.1,0.1l0.1,0.5l-0.2,0.3l0.2,0.1v0.2l-0.1,0.1l0.2,0.3l-0.2,0.3l0.2,0.2l0.2,0.2h0.2v0.3l0.2-0.1l0.2,0.3l0.3-0.3l0.2,0.2
		l0.1,0.3l0.6,0.4l-0.1,0.2l0.5,0.3v0.2l0.3,0.3l-0.2,0.5l-0.4,0.4l-0.1,0.3l-0.4,0.1l-0.3-0.1v-0.2l-0.4-0.1l-0.2-0.2v0.2h-0.2
		l-0.1-0.1l-0.3-0.1l-0.1,0.2l-0.2,0.1l-0.1-0.1l-0.2,0.3l-0.3-0.1l-0.2,0.1v0.1h0.5l0.1,0.1v-0.2h0.4l0.2,0.1l0.3,0.1l0.2,0.3
		l0.2-0.1l0.2,0.1l0.3-0.2l0.4,0.1l0.2,0.2v0.3l-0.2,0.2H303l-0.3,0.4h-0.2l0.1-0.3l-0.1-0.1l-0.1,0.2v0.2h-0.2l-0.2,0.2v0.3
		l-0.3-0.2v0.2l-0.2,0.2v-0.1h-0.2l-0.2,0.2h0.3l0.3,0.3h-0.6l0.5,0.2v0.2l-0.2,0.4l0.3,0.3l-0.4,0.1l-0.3-0.1l0.2,0.3L301,416
		l0.3,0.2l-0.3,0.2l0.3,0.3L301,417v0.3l0.3,0.2l-0.1,0.2l-0.1,0.8l-0.2,0.3l-0.1,0.6l-0.3,0.4l-0.2-0.2l-0.3-0.1l-0.3,0.2l-0.6-0.1
		l-0.1-0.2l-0.1,0.5l-0.5,0.1l-0.2,0.5l0.2,0.2v0.2l-0.3,0.3l-0.4-0.1l-0.8,0.2h-0.3l-0.2-0.2l0.2-0.3l-0.1-0.7l-0.3-0.1v-0.3
		l-0.2-0.1l0.1-0.2h0.4l0.2-0.4l-0.1-0.4l-0.3,0.2l-0.3-0.3l-0.1-0.3l-0.3-0.1v-0.4l-0.3-0.6l-0.1-0.1l-0.2-0.4l-0.3-0.1l-0.2-0.3
		l0.1-0.1v-0.3l-0.1-0.2l0.1-0.2l0.3-0.3l-0.1-0.2l-0.3-0.2l0.1-0.2h-0.1v0.2l0.2,0.2l-0.3,0.1v-0.3l-0.1-0.1l-0.2-0.1V414l-0.1-0.2
		l-0.1-0.7l0.2-0.1l0,0l0.1-0.1l-0.2-0.1h-0.4l-0.3-0.3v-0.2l-0.2-0.3l0.1-0.3l-0.1-0.4l0.2-0.3l-0.2-0.2l-0.2,0.2v0.3l0.2,0.2
		l-0.1,0.1h-0.2v0.1l-0.1,0.1l0.1,0.2l0.2,0.1l0.1,0.3l-0.1,0.3l-0.4,0.4V413l-0.3-0.2l-0.1,0.2l0.1,0.1l0.1,0.2l-0.3,0.1l-0.1-0.2
		V413h-0.2l-0.1-0.1l-0.1-0.4l-0.3-0.3l-0.2-0.1v0.3l0.3,0.2l0.2,0.3l-0.1,0.2l0.2,0.3l-0.1,0.2h-0.3l-0.2,0.2v0.2l-0.2,0.1l0.1,0.1
		l-0.3,0.3l-0.4-0.3l0.2,0.3v0.2l-0.5,0.5h-0.2l-0.1-0.2h-0.1l-0.1,0.1h-0.1l-0.3,0.3l-0.3,0.1l-0.1-0.1l-0.1,0.2l-0.3-0.4v-0.1
		l-0.2-0.2h-0.2l0.1,0.3l-0.2,0.1l-0.2-0.2l0.1-0.1l-0.1-0.2l-0.6-0.2l-0.4-0.4l-0.3-0.1l-0.4-0.7l0.2-0.2V413h0.2l0.2,0.1l0.2-0.1
		l0.6,0.4v-0.1l-0.2-0.3l0.2-0.1h0.3l-0.2-0.2L287,413l-0.1,0.2l-0.2-0.4l0.2-0.1l0.1-0.3l-0.2-0.2l0.2-0.1l-0.3-0.2l-0.1,0.3
		l0.1,0.1l-0.2,0.1l-0.1-0.1l-0.1,0.2l-0.4-0.4l-0.1-0.3l0.3-0.4l0.2-0.1l0.1,0.3l0.1-0.3l0.2-0.1l0.3,0.2v-0.2l0.1-0.2h0.3
		l-0.1-0.2h-0.4l-0.2-0.1l0.1-0.2h0.2l0.3-0.3l-0.3-0.1l0.2-0.1l0.2-0.4h0.2v0.3l0.2,0.2l-0.1-0.2v-0.4l0.3-0.2l0.2-0.1l-0.2,0.1
		h-0.3l-0.6,0.2v0.3l-0.2,0.1l-0.2,0.4h-0.1l0.1-0.3l-0.2-0.2l0.1-0.2h-0.2l-0.1-0.1l0.4-0.2v-0.2l0.1-0.1l-0.3-0.1l-0.4,0.5
		l-0.2-0.2l-0.1-0.3l0.2,0.1l0.1-0.1v-0.3l0.2-0.2h-0.2l-0.1,0.1l-0.2,0.1l-0.1-0.1l0.1-0.2l-0.1-0.3h0.1l0.2,0.1h0.2l0.4-0.2
		l0.2,0.1l0.3-0.1l0.3,0.1l0.2,0.3v-0.2l0.3-0.3h0.3v0.3l-0.2,0.1v0.1h0.4l0.1-0.2l-0.1-0.1l0.2-0.2l0.4-0.1l0.2-0.2l-0.2-0.3
		l0.1-0.3l-0.2,0.3l0.1,0.2l-0.1,0.1l-0.3-0.1l0.2-0.1l0.1-0.1h-0.2l-0.3,0.2h-0.2l-0.1-0.2l-0.2,0.1v0.2l-0.2,0.1l-0.1-0.1
		l-0.3-0.1l-0.5,0.1l-0.2,0.1h-0.4l-0.1-0.2l-0.1-0.1v-0.1h0.1l0.3-0.2h-0.2l-0.2-0.1v-0.1h0.1l0.1-0.1h0.4l0.3-0.2h-0.4l-0.2,0.1
		h-0.2l0.2-0.2l-0.5-0.2v-0.1h0.3l0.2-0.2l0.1,0.1l0.3-0.1l0.5,0.2l0.2-0.1l0.4,0.1l0.3-0.3h-0.2l-0.1,0.1h-0.5l-0.3-0.2l-0.5-0.1
		l-0.3,0.1l-0.1-0.1l0.1-0.2l-0.3-0.3v-0.2h0.1l0.3,0.2l0.1,0.3l0.2-0.1l-0.1-0.3h0.5l0.1,0.3l0.2-0.1h0.2l-0.3-0.2l0.3-0.3l0.3,0.2
		v-0.2l-0.1-0.2h0.3l0.3,0.1v0.4l0.1,0.1l0.2-0.1l-0.1-0.2l0.1-0.2l-0.4-0.2l-0.3-0.2l-0.5-0.1l-0.1-0.1l0.2-0.1l0.1,0.1l0.2-0.1
		l0.2,0.2l0.2-0.1h0.1l0.3,0.3l0.3,0.1l0.2-0.3l0.5-0.2l0.1-0.2h-0.2l-0.4,0.2l-0.1-0.1l0.2-0.2l-0.1-0.1l-0.5,0.2l-0.2-0.2l0.2-0.2
		v-0.2l0.1-0.1l0.2,0.1h0.3l0.2,0.2l0.2-0.1l0.4,0.4l0.4,0.2h0.3l-0.1-0.1h-0.3l-0.3-0.2l-0.3-0.4v-0.2h0.1l0.1,0.2l0.3,0.2h0.3
		l0.1,0.2l0.4,0.1v-0.2l-0.2-0.1l0.1-0.2h-0.4l-0.3-0.2v-0.1h0.2l0.1,0.1l0.1-0.2l0.3-0.2l-0.1-0.1l-0.2,0.1h-0.2l0.3-0.3h0.2
		l0.3,0.1l0.4-0.4h-0.4v-0.1h0.3l0.1-0.2h0.2l0.2,0.3v0.3l0.2,0.2l-0.1,0.1l-0.2,0.2l0.2-0.1l0.2-0.1v-0.3l0.2-0.2h0.3l0.2,0.2h0.3
		v-0.3l0.2-0.2l-0.3-0.1l0.4-0.5h0.2l0.1-0.2l-0.4-0.1v-0.2l0.4-0.3h-0.2h-0.3l-0.1,0.1h-0.1l-0.1,0.3l-0.2,0.3l0.2-0.1v0.2
		l-0.5,0.5h-0.4l-0.3,0.2l-0.2-0.2v-0.3l0.2-0.1V401h-0.2l-0.3,0.2l-0.1-0.1l0.3-0.3l0.2-0.2v-0.3v-0.1l0.3-0.2v-0.3l0.2-0.1h0.4
		l-0.1-0.2v-0.2l0.1-0.1l-0.1-0.2h0.2l0.1-0.1l0.2,0.1v0.2h0.2l0.1-0.3l0.2-0.1l-0.3-0.1v-0.1l0.2-0.2h0.4l0.1-0.1l-0.2-0.1l0.2-0.2
		l0.3-0.1v-0.1l0.2-0.1h0.2l0.3-0.3h0.2l0.1-0.4h-0.1l-0.1,0.2h-0.2l-0.1-0.3v-0.3h-0.1v-0.2l0.1-0.1l0.3,0.2v-0.2v-0.1l-0.3-0.1
		v-0.2l0.1-0.1l0.2,0.2h0.1v-0.2l-0.1-0.2h0.1v-0.2l0.1-0.2h0.1l0.2,0.2v-0.2l-0.2-0.1v-0.2h-0.3l-0.1-0.1l0.3-0.3h0.4l0.1,0.1h0.3
		v-0.1l0.2-0.2l-0.2,0.1h-0.2l-0.1-0.2l-0.4-0.1l-0.2-0.1l0.1-0.2v-0.2l0.1,0.1h0.2l0.2-0.1h-0.2v-0.2l0.1-0.1l-0.2-0.2l0.1-0.1v0.1
		h0.3l0.1-0.1l-0.2-0.2l0.1-0.1l0.1,0.1l0.2-0.1l-0.2-0.2l-0.2-0.1v-0.1h0.2l0.4-0.2l0.1,0.1l0.3-0.1v-0.2l0.4-0.1l0.2-0.1h0.3
		l0.4,0.3v-0.2l-0.2-0.1l-0.1-0.2l-0.3,0.1l-0.2-0.2l-0.2,0.2l-0.3-0.1v-0.2l0.3-0.2h0.3l-0.2-0.2l0.2-0.2h0.1l0.2,0.3h0.2l0.2,0.2
		v-0.2l-0.3-0.2l-0.2-0.2l0.1-0.3h0.4L298,390h-0.2l-0.3,0.3h-0.2l0.2-0.3l-0.2-0.2l0.1-0.3h0.2l0.1,0.1l0.6-0.1l0.2-0.2l-0.3-0.2
		h-0.3l-0.2-0.2l0.3-0.3h0.2l-0.1,0.1l0.1,0.2l0.2-0.1l0.2-0.2l0.2,0.3v0.3l0.1,0.2l0.1-0.2V389l0.1-0.2h0.1l-0.1-0.2l-0.2-0.2h0.2
		l0.2,0.1l0.1-0.2l-0.1-0.1h0.3l0.1,0.1l0.3-0.1v0.2l0.1,0.1l0.1-0.1l0.1-0.4l0.2-0.2v-0.2h-0.2l-0.3,0.1l-0.2-0.1l-0.7,0.2
		l-0.3-0.1l0.2-0.3h0.3l0.1-0.1l-0.1-0.1l0.2-0.3l0.2-0.1l0.1,0.2h0.2l-0.1-0.1v-0.2h0.2l0.1-0.1l-0.2-0.1l0.2-0.1h0.3l-0.2-0.2
		h-0.2H300l0.3-0.4l0.2-0.1l0.2,0.1l0.1-0.3l-0.1-0.2l0.1-0.4l0.2-0.1l0.1,0.2l0.1,0.1v0.4l0.3,0.2l-0.2-0.3l0.3-0.1h0.3l-0.1-0.1
		h-0.2l-0.4-0.3l0.1-0.2l0.4-0.1l0.1,0.1l0.2,0.5l0.3,0.1l0.1,0.4l0.2-0.3l-0.1-0.2l-0.4-0.3v-0.3l-0.1-0.3l0.2-0.4l0.3-0.2h0.2
		l0.1,0.4l-0.1,0.3v0.3l0.2-0.3l-0.1-0.2v-0.4l0.4-0.6l0.2-0.1l0.2,0.9l-0.2,0.4l0.1,0.2L303,385v0.2l0.3-0.3l0.1-0.2l0.2-0.3
		l0.1,0.1h0.2l-0.1-0.3l-0.3-0.1v-0.2l0.3-0.2v-0.2l0.2-0.2l0.1,0.4l0.2-0.2l0.1-0.3l0.2,0.2l0.3,0.1l0.2,0.3l0.2,0.2v-0.2l-0.2-0.3
		v-0.3l0.2-0.3h-0.4l-0.1-0.2h-0.2l-0.3-0.4v-0.1l0.3-0.1l0.2-0.2l0.1,0.2l0.2-0.2h0.1l0.5,0.4h0.3h0.3l0.2,0.1l-0.2,0.2l0.2,0.1
		l0.1,0.4h0.4l0.1-0.1l-0.1-0.1l-0.2-0.1l0.2-0.2l-0.2-0.2l0.1-0.2l0.3-0.2l-0.1-0.1v-0.1l0.2-0.1l0.2-0.3h0.1l0.3,0.2l0.1-0.1
		l-0.1-0.1v-0.2l0.2-0.2l0.2,0.2l0.1-0.1l-0.1-0.3l-0.4-0.2v-0.1l0.1-0.1l0.2,0.1l0.1,0.2l0.1-0.2v-0.4l0.2-0.1l0.3,0.1l0.2,0.2v0.3
		l0.2-0.2v-0.3h0.1l0.2,0.3h0.2v0.2l-0.1,0.1l-0.1,0.3l-0.5,0.5l0.1,0.3l-0.1,0.2l0.1,0.3l-0.3,0.4l0.1,0.2v0.3l0.2-0.1l0.4-0.4
		v-0.3l-0.1-0.2l0.1-0.4l0.4-0.5v-0.4l0.4-0.6h0.1l0.1,0.2v0.5l-0.2,0.2v0.1l0.2,0.1l-0.3,0.5v0.3l0.2-0.1V382l0.2-0.1l0.2,0.1
		l0.1-0.1l0-0.9l0.2-0.1l-0.1-0.1v-0.2l0.2-0.1v-0.2l0.2-0.1v-0.1l-0.1-0.1h-0.2l-0.1-0.1l0.1-0.3l0.2-0.1l0.2,0.3h0.1l0.1-0.2
		l-0.2-0.2v-0.1l0.2-0.2l0.2,0.2h0.2l0.2-0.2l0.1,0.2l-0.1,0.2l0.1,0.1l0.3-0.1l0.1,0.2l-0.2,0.5h-0.3l-0.1-0.1l-0.2,0.1l0.1,0.1
		l0.3,0.1v0.1l-0.2,0.2v0.1l0.2,0.1l0.3-0.2h0.1v0.1l-0.1,0.3l-0.2,0.1l-0.3,0.4l0.4-0.2h0.3v-0.1h0.2l0.1,0.3l0.2-0.1v-0.2
		l-0.2-0.4v-0.1l0.2-0.1v-0.4l0.2-0.1h0.3l0.3,0.2v0.2l-0.2,0.1l0.1,0.2h0.1l0.1-0.2h0.1v0.2h0.1l0.2-0.3h0.2l0.1,0.1l0.3,0.1v0.2
		l-0.2,0.2v0.1h0.2l0.2-0.3h0.2l0.4,0.3h0.3l0.2,0.1l0.1,0.1l0.2,0.1v0.1l-0.3,0.2l-0.6,0.2l-0.3,0.6l-0.4,0.1l-0.6-0.1l-0.3-0.1
		h-0.4l-0.5-0.1l-0.1,0.1l0.2,0.2h0.4l0.2,0.1h0.3l0.1,0.1l0.1,0.3h0.1l0.1,0.3l0.1,0.2l0.1-0.2l0.2-0.1l0.1,0.2l0.1,0.1v-0.3v-0.2
		h0.2l0.1,0.2l0.1,0.1v-0.2l0.1-0.1h0.1l0.2,0.2h0.1v0.3l-0.2,0.2l-0.3-0.1h-0.3v0.4l-0.2,0.3l-0.4,0.1l-0.4,0.4v0.5h-0.2l0,0
		l-0.4,0.2l-0.3,0.2l0.3,0.1l-0.1,0.4l-0.1,0.5l0.2,0.3l0.3,0.7h0.2l0.4,0.2l0.2,0.4l0.1,0.3l0.7,0.5l0.2,0.2l-0.1,0.5l-0.3,0.5
		l-0.3,0.7l0.4,0.4l0.1,0.4l0.6,1.2l0.7,1.6L317,395l-0.1,1v0.3l0.3,0.1l-0.2,0.3v0.5l0.2,0.3l0.4,0.1l0.1,0.3l-0.1,0.1v0.6l0.2,0.4
		l0.5,0.3v0.5l-0.3,0.4l-0.1,0.5l0.7,1l0.4,0.1l0.7,0.8l0.1,0.5l-0.5,1.1L318.9,405z M309.8,379.8l-0.3,0.1l-0.3-0.3l-0.3-0.1v-0.2
		l0.1-0.1l0.2,0.1l0.1-0.1V379l0.2,0.1l0.2,0.1l-0.2,0.3h0.4L309.8,379.8z M308.1,379.4l0.1-0.2h0.2l-0.1,0.2H308.1z M307.6,380.8
		l-0.1,0.3l-0.4,0.2V381l-0.2-0.2l0.4-0.2L307.6,380.8z M307.5,380.1l-0.2-0.3l0.3-0.1l0.2,0.2l-0.1,0.2L307.5,380.1z M306.5,381.9
		l-0.4-0.4l0.6-0.5l0.1,0.4l-0.2,0.3L306.5,381.9z M306,381.7l0.1,0.2l-0.1,0.3l-0.3-0.1l-0.3-0.2l0.2-0.2L306,381.7z M305.6,381.3
		l-0.5-0.1l-0.1-0.3l0.3,0.1l0.3-0.2l0.2,0.2l0.2-0.3l0.2,0.1l0.5-0.5l0.1,0.2l-0.8,0.8L305.6,381.3z M303.8,383.3l-0.2-0.3
		l-0.2-0.1v-0.5l0.2-0.2l0.3,0.2l-0.1,0.3l0.2,0.2L303.8,383.3z M302.4,382.8v-0.3l-0.1-0.4l0.2-0.1l0.1,0.4l0.3,0.2l0.1,0.2
		l-0.1,0.1L302.4,382.8z M302.5,383.6l-0.2,0.1l0.1-0.4L302.5,383.6z M302,383.3v0.3l-0.1,0.1h-0.2l-0.4-0.4l0.5-0.4l0.1,0.2h0.3
		v0.1L302,383.3z M301.7,382.3l0.3-0.1l-0.2,0.3L301.7,382.3z M301.2,383.1v-0.4l0.4-0.1v0.2C301.6,382.9,301.2,383.1,301.2,383.1z
		 M301.5,383.7l0.2,0.3l-0.2,0.3v0.2h-0.4l-0.3,0.1l-0.3-0.4h0.4V384h0.4L301.5,383.7z M299.7,386.7l-0.3,0.1l0.1-0.4L299.7,386.7z
		 M300.5,385.6l-0.3,0.1l-0.1,0.2h-0.4l-0.1,0.4h-0.1V386h-0.3l0.3-0.3h-0.3l0.1-0.4h0.4l-0.4-0.2l0.2-0.3l0.2,0.2l-0.1-0.3l0.5,0.1
		l0.1,0.2l0.2,0.1L300.5,385.6l-0.1,0.1L300.5,385.6z M298.1,387.9l-0.1,0.2l-0.2-0.1v-0.3l-0.4,0.5h-0.2l0.1-0.4l0.2-0.1v-0.3
		l0.2-0.3v-0.3l0.4-0.6l-0.2,0.8l0.1,0.3l0.2-0.4h0.5l-0.2-0.3v-0.2l0.2,0.2l0.4,0.4l-0.5,0.6L298.1,387.9z M298.4,386.3l0.2-0.1
		l0.3,0.2v0.2L298.4,386.3L298.4,386.3z M298,386l-0.4,0.5l-0.2-0.1v-0.5l0.4-0.3v-0.3l0.4-0.2l0.1,0.3l-0.3,0.2V386z M296.7,387.3
		l0.4-0.3h-0.2l-0.4,0.3l-0.1-0.2l0.1-0.3l0.3,0.1l0.3-0.3l-0.1-0.1h0.2l0.1,0.4v0.5l-0.4,0.1L296.7,387.3z M297,387.7l-0.4,0.1
		l0.2-0.3L297,387.7z M296.5,391.9l-0.2-0.1l0.1-0.2h0.2L296.5,391.9z M297,388.5l-0.3-0.2l-0.4,0.3v-0.3l0.7-0.4L297,388.5z
		 M295.5,389.1l0.1-0.6l0.5-0.1v0.3L295.5,389.1z M295.1,389l0.1-0.2l0.1,0.1l-0.1,0.3L295.1,389z M294.6,389.4l0.3-0.5l0.1,0.4
		l-0.4,0.3V389.4z M294.6,395.3l-0.1-0.2l0.1-0.2h0.3L294.6,395.3z M294.4,394.6l0.3-0.3l0.1,0.3l-0.2,0.4L294.4,394.6z
		 M294.3,390.4l0.1-0.2l0.1,0.2l-0.1,0.2L294.3,390.4z M293.8,396l0.2-0.2l0.1,0.1v0.2l-0.2,0.1L293.8,396z M293.7,397.7l-0.2-0.1
		l0.1-0.2l0.4-0.1L293.7,397.7z M293.4,398.2l-0.2,0.1l-0.1-0.2h-0.3l0.2-0.3l0.4-0.1l0.2-0.1L293.4,398.2z M289.9,401.9l-0.2,0.1
		h-0.2l0.2-0.4h0.3l0.1-0.2h0.2l0.2,0.2l-0.2,0.3H289.9z M289.4,401.5l0.5-0.4l0.2,0.2l-0.3,0.2L289.4,401.5z M289,402.6l0.3-0.3
		l0.1,0.3l-0.2,0.1L289,402.6z M288.7,401.9h0.3l0.1,0.2l-0.1,0.1L288.7,401.9z M286.2,404.6l0.2,0.1l0.1,0.2l-0.3,0.2L286.2,404.6z
		 M285.9,404.8l0.1,0.2h-0.3L285.9,404.8z M285.2,405.8l-0.1-0.4l0.3,0.2L285.2,405.8z M285,406.2l-0.1-0.2l0.4,0.2H285z
		 M284.8,408.3l0.3-0.2l0.1,0.1l-0.2,0.2L284.8,408.3z M285.2,408.7v0.3l-0.2-0.2L285.2,408.7z M285.3,409.3l-0.1,0.1l-0.1-0.1
		H285.3z M285.2,409.9l-0.2-0.2l0.3-0.1L285.2,409.9z M284.4,429.4h-0.2l-0.1-0.1h-0.2l0.3-0.1L284.4,429.4z M284.6,429.3h-0.2v-0.1
		l-0.2,0.1l-0.1-0.1h0.2L284.6,429.3L284.6,429.3z M280.3,429.8l0.1-0.1h0.1l0.1,0.1h-0.2H280.3z M277.5,431.7l-0.2-0.2h-0.2
		l0.4-0.2l0.2,0.1h0.2l-0.1,0.2v0.1H277.5z M273.2,425.8h0.3l-0.4,0.3l-0.4-0.2l0.1-0.3h0.3L273.2,425.8z M272.3,424.2l0.1-0.4
		l0.5-0.4l-0.1,0.3l0.1,0.2l-0.4,0.4L272.3,424.2z M272.1,420.3v0.2l-0.2-0.1v-0.2L272.1,420.3z M271.7,421.2l-0.1-0.5l0.3-0.2
		l0.2,0.4l-0.1,0.3L271.7,421.2z M281.4,428.2l-0.2,0.1l-0.2,0.2v-0.1h-0.2l-0.1,0.2h0.3l-0.1,0.1h0.1l-0.1,0.1l-0.2,0.2l-0.1-0.1
		l-0.1,0.1l-0.2,0.2h0.2l0.1,0.2l-0.2,0.1h-0.2l-0.3,0.2l0.2-0.1l0.2,0.1v0.1h-0.1l-0.1,0.1h0.1l0.3,0.1h0.2l0.3-0.1h0.4l-0.1,0.2
		l0.1,0.2v0.2h-0.2l-0.4,0.2v0.2h-0.2h-0.2l-0.2,0.2h-0.3l-0.2,0.2h-0.2l-0.3-0.1l-0.3,0.1h-0.5l-0.2,0.2l-0.2-0.1v-0.1l-0.2,0.1
		h-0.1l-0.2-0.1l-0.3,0.2l-0.2-0.1l-0.3,0.2l-0.1,0.2l-0.2-0.1H276h-0.1l-0.3-0.2h-0.3l-0.6,0.1l-0.1,0.1h-0.1l-0.2,0.2l0.1,0.3
		l-0.1,0.2l-0.2,0.1v0.2h-0.3l-0.2-0.2h-0.2l-0.1-0.2l-0.1,0.1H273l-0.2,0.1l-0.3-0.1l-0.1,0.2h-0.1l-0.2,0.2l-0.1-0.1l-0.2,0.2
		l0.1,0.1l-0.2,0.2l-0.1-0.2l-0.3-0.1v0.2H271v-0.2l0.3-0.2l0.2,0.1l0.4-0.3l0.1-0.2h0.1l0.1-0.3l0.3-0.1l0.1-0.1l0.3-0.2v-0.5h0.3
		l0.2-0.2v-0.2l0.5-0.1l0.7,0.1l0.2,0.1l0.2-0.1h0.3v-0.4l0.4-0.4l0.4-0.4l-0.3,0.1l-0.1,0.2l-0.3,0.1l-0.2,0.1l-0.1,0.2h-0.5
		l-0.2-0.2l-0.2-0.3l-0.2,0.1v0.1h-0.4v-0.2l0.3-0.1l-0.3-0.1v-0.2l-0.4,0.1l-0.2,0.2l-0.2,0.1l-0.1-0.1l0.1-0.1l-0.4-0.1l0.2-0.1
		v-0.2h-0.3l0.4-0.2h0.2l0.3-0.2h0.1l0.2-0.2l0.3-0.1l0.3-0.7H274l-0.1-0.2l0.2-0.1l-0.2-0.2v-0.3l-0.5,0.1v0.1h-0.1h-0.2l0.2-0.2
		l0.4-0.2l0.3-0.4l0.5-0.3h0.2l0.5-0.2l0.2,0.2l0.2,0.1l-0.2-0.1l-0.1-0.2l0.2-0.1l0.2,0.3h0.2l0.1-0.1h-0.2l-0.2-0.2l-0.2-0.2
		l0.2-0.3l-0.1-0.4l0.3-0.2l-0.1-0.1l0.1-0.4h-0.3l-0.3,0.3V424l-0.2,0.1l-0.4-0.7l0.3-0.9l0.5-0.1h-0.8l-0.1,0.3h-0.3v0.1h-0.3
		l-0.4-0.3h-0.1l0.2,0.2v0.3l-0.5-0.4l-0.2,0.1l0.1,0.4l-0.3-0.4v-0.3l0.2,0.1l-0.1-0.3l0.3-0.7l0.3-0.3l-0.1-0.3h-0.2l-0.1-0.3
		l0.1-0.4l0.3,0.1l-0.3-0.3l0.1-0.3l-0.1,0.1v0.3l-0.2,0.4l-0.1-0.3l-0.2,0.2v0.2l-0.1-0.1v-0.3l0.3-0.4l-0.4,0.5h-0.1l0.1,0.6
		l-0.2,0.2v0.2l-0.1,0.3v0.2h-0.3v-0.1l0.1-0.1v-0.4l0.2-0.3L272,421l-0.1-0.1l0.1-0.2v-0.3l0.2-0.4h-0.1l0.2-0.4v-0.1l0.2-0.4
		l0.2-0.1l-0.1-0.1l0.1-0.2l-0.6,0.6l-0.1-0.1h-0.1l-0.2-0.2h0.2v-0.1h-0.2h-0.2l-0.1-0.1l0.1-0.1h0.3l0.1-0.1l0.1-0.1l-0.1-0.1
		l0.1-0.2l0.3,0.1v-0.1l-0.2-0.1l0.1-0.1h0.1l-0.1-0.1l0.1-0.2h0.1l0.2,0.1l-0.1-0.1l0.1-0.1l-0.2,0.1l-0.1-0.1v-0.1l0.3-0.1
		l-0.4,0.1v-0.1v-0.3l0.2,0.1l0.2-0.1h-0.2l-0.2-0.2l0.1-0.1l-0.1-0.1l0.1-0.2l0.1,0.2l0.1-0.1l-0.1-0.1v-0.1l0.2,0.1l0.1-0.1
		l0.3,0.2l-0.1-0.2l-0.3-0.3h0.1l0.1-0.2l-0.1-0.2l0.3-0.1v-0.2h0.1v-0.2l0.1-0.1l0.1-0.2l0.4,0.2l-0.1,0.2l0.3-0.2l0.1,0.1v0.1
		l0.1-0.1h0.1l0.2-0.1h0.3l0.3-0.1l0.2,0.1l0.1-0.1h0.3v0.1l-0.1,0.2l0.1,0.1l-0.1,0.3l-0.2,0.1l-0.2,0.3l-0.6,0.5v0.2l-0.1,0.1
		l0.2,0.1l0.2-0.1l-0.2,0.4l-0.2,0.3l0.1,0.1l0.2-0.1h0.1l0.3-0.1l0.2-0.1v-0.1h0.2l0.2,0.1h0.2l0.1-0.1l0.4,0.1h0.6l0.1-0.1
		l0.4,0.3v0.2l-0.2,0.2l-0.1,0.4l0.1,0.1l-0.1,0.3v0.1l-0.1,0.2l-0.2,0.4l-0.1,0.1v0.2l-0.2,0.2h-0.4l-0.3,0.2l0.1,0.1l0.4-0.2
		l0.1,0.1v0.2l0.3,0.1l-0.3,0.2h-0.3l-0.1,0.2l-0.3,0.1h-0.4l-0.2-0.1l0.1,0.2l0.3,0.1h0.2l0.4,0.1l0.3-0.2l0.1-0.1l0.3,0.1l0.2,0.2
		l0.3,0.1l0.4,0.6h0.1l0.2,0.2l0.1,0.7l0.2,0.3l0.2,0.6l0.1,0.1v0.2l0.5,0.1l0.4,0.2l0.2,0.5h0.1l0.1,0.2l0.2,0.1h-0.1l-0.1,0.2
		l0.2,0.3l0.4,0.5h-0.2h-0.2l-0.1-0.1L280,426h-0.2h-0.1l-0.2,0.1h0.1l0.2,0.1h0.1h0.2l0.1,0.2l0.3,0.2h0.1l0.4,0.6v0.3l-0.5,0.4
		l0.3,0.1l0.2,0.3l0.1-0.2v-0.3h0.5h0.7l0.5,0.4l0.1,0.4l0.1,0.2l-0.2,0.4L281.4,428.2z M277.6,408.6l0.2-0.2l-0.1,0.4L277.6,408.6z
		 M277.3,410.4l-0.2,0.2L277.3,410.4L277.3,410.4z M277.5,409.8l-0.1,0.2l0.1,0.2l-0.2-0.1l-0.1-0.2h-0.4l-0.1-0.2l0.2-0.1h0.3v-0.1
		l-0.1-0.1l0.1-0.1l0.2,0.1l0.2,0.1l-0.1,0.1V409.8z M277.2,409.1l0.1-0.2v-0.2l0.1,0.1v0.4l-0.1,0.1L277.2,409.1z M276.8,409.3
		l0.1-0.2l0.2-0.1v0.4C277,409.4,276.8,409.3,276.8,409.3z M274.3,413.7l-0.1,0.1l-0.2-0.3h0.1L274.3,413.7z M274.6,413.5h-0.3v-0.2
		l-0.1,0.2l-0.1-0.1v-0.3h0.2l0.2,0.2l-0.1,0.1h0.3v0.2L274.6,413.5z M274.4,413h0.1v0.2L274.4,413z M270.6,417.9h0.1l-0.1,0.1
		V417.9z M271.2,417.1l0.1,0.1l-0.2,0.1l-0.1,0.3h-0.1v-0.3h-0.4l-0.2-0.4v-0.1l-0.1-0.1v0.1l-0.3-0.2l0.1-0.1l0.1,0.1v-0.3l0.3,0.2
		v-0.3l0.2-0.1l0.2,0.3v0.5l0.3,0.2L271.2,417.1z M270.4,415.3L270.4,415.3l-0.1,0.3l-0.3-0.1h-0.3l-0.1-0.1l0.1-0.1l-0.2-0.2
		l0.2-0.2l0.3,0.1l-0.1-0.2l0.7-0.5v0.4l-0.3,0.2L270.4,415.3z M269.2,416.5l-0.2-0.2l0.1-0.1h0.4v0.2L269.2,416.5z M269.1,417.7
		l-0.2,0.1v-0.2l0.1-0.2L269.1,417.7z M269.3,416.8l-0.2-0.1v-0.1h0.3L269.3,416.8z M269.1,417.4l-0.1-0.2l0.1-0.2v-0.2h0.2v0.2
		l-0.1,0.1l0.1,0.3L269.1,417.4z M269.7,415.9l0.1-0.1l0.1-0.1l0.2,0.1l-0.3,0.3L269.7,415.9L269.7,415.9z M269.6,418.7h0.3
		l-0.3,0.2V418.7z M270.8,420.4l-0.1-0.3l0.5-0.5l-0.2,0.5L270.8,420.4z M270.5,417.6l0.1,0.2l-0.1,0.1l-0.1-0.2L270.5,417.6z
		 M271,418.8h0.2l0.1,0.3l-0.3,0.2v-0.1l-0.6,0.1l0.3-0.2l-0.1-0.1l0.2-0.1l-0.4-0.2l0.3-0.2L271,418.8z M270.6,419.8l-0.1,0.1
		l0.1-0.3V419.8z M270.3,418.3l-0.1,0.2l-0.2,0.1L270.3,418.3z M270.8,420.6l-0.3,0.2v-0.3l-0.3,0.2v-0.4l0.4-0.2L270.8,420.6z
		 M269.1,421.4l-0.1-0.2l0.2,0.2l0.3,0.2l-0.3,0.2L269,422h0.1l0.3-0.1l0.1-0.1h0.2l0.3-0.2h0.5l0.2,0.1v0.3l0.5,0.6l-0.2,0.2h0.4
		l0.1,0.7l-0.2-0.5h-0.2l0.1,0.2l-0.1,0.2h0.2l-0.1,0.3h-0.4v0.2l-0.2,0.2h-0.1v0.2h-0.1h-0.2l-0.1,0.2l0.2,0.2l-0.1,0.3l0.2,0.3
		v0.3l-0.2,0.1l0.2,0.1l0.1,0.7l-0.1,0.3l-0.3,0.3v0.3l-0.2,0.3l-0.2,0.1l0.3,0.4h-0.5l-0.2-0.1l-0.2,0.2l-0.1-0.2l-0.1,0.2
		l-0.9,0.1l-0.1,0.3h-0.2l-0.3,0.3h-0.3l0.1-0.2h-0.3l0.1,0.3l-0.4,0.3l-0.5,0.1l-0.5,0.1l-0.2-0.1l-0.4,0.1l0.1-0.2h-0.2l0.4-0.2
		V429l-0.5,0.3h-0.4l0.2-0.2l0.6-0.4l-0.7,0.2l-0.1-0.2h-0.3l0.1-0.3l0.4-0.1l0.3-0.3l-1,0.1V428l0.4-0.2l0.1,0.1l0.1-0.1l0.2,0.2
		h0.3h-0.1l0.1-0.2l-0.1-0.2l0.3-0.1l0.1-0.2h0.5l0.7-0.2h-0.3V427l-0.3,0.2h-0.4l-0.2-0.1l-0.3,0.2h-0.2l0.5-0.4l0.3-0.4h-0.1
		l0.3-0.5l0.2,0.1l0.3-0.3h-0.9l-0.1-0.4l-0.4,0.1l0.1-0.1l-0.2,0.1l-0.2-0.1l0.2-0.1l-0.1-0.3h0.4l-0.1-0.2l0.1-0.2l0.4-0.1
		l-0.1-0.2l-0.3,0.1L265,424h0.4v0.2h0.2l-0.1-0.3h-0.1v-0.3l-0.2,0.2l0.1-0.4l0.4,0.1v-0.1l0.7,0.1l0.1,0.3l0.2-0.2l0.2,0.1
		l0.4-0.1l-0.2-0.1l0.4-0.2l0.4-0.4h-0.2l-0.3,0.1l0.1-0.1h-0.3l-0.1-0.2l0.3-0.1v-0.1h0.2l0.1-0.1l-0.2-0.1l0.1-0.3h0.1v-0.2
		l0.4-0.1l0.1,0.1h0.2l-0.1-0.2h0.2l0.2,0.3l-0.1,0.2v0.2l0.2-0.3l-0.1-0.4L269.1,421.4z M261.1,396.4l-0.3,0.1v0.3l-0.2,0.1v0.3
		l0.3,0.3l0.1,0.3l-0.2,0.3h-0.3l-0.1-0.2l-0.3-0.2l-0.1,0.1l0.1,0.4l-0.2,0.1v0.2l0.1,0.1v0.2l-0.2,0.2l-0.4-0.1l-0.1-0.2h-0.1v0.2
		l0.1,0.1l-0.2,0.2l-0.8,0.2l-0.3,0.3l-0.7,0.6l-0.1,0.1v-0.1h-0.3h-0.1l-0.2-0.1l-0.3,0.4h-0.2l-0.1,0.1l-0.1-0.1l0.1-0.2h-0.4v0.4
		l-0.3,0.3l-0.4-0.1l-0.1-0.2l-0.1,0.1l0.1,0.3l-0.4,0.1l-0.3-0.1h-0.7l-0.5-0.5h-0.3l-0.2,0.2l-0.2-0.1l-0.4-0.3v-0.3l-0.3,0.1
		l-0.2-0.1l-0.1-0.2l-0.2,0.1l-0.3-0.2l-0.4,0.3l-0.5-0.1l-0.2-0.1l-0.1,0.1h-0.4v-0.5l0.1-0.1l-0.1-0.1L249,399h0.1v-0.1l0.3,0.2
		l0.1,0.2l0.2-0.1h0.2l0.1-0.2v-0.2h0.3l0.2-0.2l0.3-0.1l0.2,0.1l-0.1-0.2l-0.3-0.1l-0.4,0.3l-0.2-0.2l0.2-0.2l0.3-0.2l0.1-0.2
		l-0.4,0.3H250l-0.1-0.2l-0.3-0.2v-0.2l0.2-0.1v-0.1h-0.3h-0.6l-0.5-0.1v0.1H248l-0.1-0.3l-0.2-0.3h0.1l0.2-0.1l0.3,0.1l0.3-0.1h0.3
		l0.2,0.1l0.2-0.2l-0.1-0.1v-0.1h0.2v0.1l0.1,0.1l0.1,0.2l0.2-0.2l0.2,0.1l0.5-0.1l0.2-0.2v-0.2l-0.2,0.1l-0.1,0.2h-0.3l-0.5-0.1
		v-0.1l0.4-0.2h0.3l0.2-0.2h0.2l0.2-0.1l-0.3-0.2l-0.2,0.2l-0.1-0.1l0.1-0.2v-0.1l-0.3,0.3H250v-0.3l-0.1,0.2l-0.3,0.2h-0.1
		l-0.1-0.3l-0.2,0.1H249v-0.2l-0.1-0.2l-0.1,0.3l-0.3,0.1l-0.2,0.3l-0.4-0.1l-0.3-0.3l-0.3-0.1l0.2-0.3l0.3,0.1l0.3,0.4l0.1-0.1
		l-0.1-0.2l-0.2-0.4l0.1-0.2h0.1l0.4,0.4h0.1l-0.1-0.2l0.1-0.1h0.2l-0.4-0.1l-0.2-0.2l0.3-0.1l0.3,0.1l-0.1-0.2l-0.2-0.1l-0.2-0.2
		l0.1-0.2l0.3,0.1l0.2,0.3l0.1-0.2l-0.2-0.3l0.2-0.1l0.3,0.1l0.3,0.3l-0.1,0.2l0.2,0.1l0.2-0.2l0.3,0.2v0.2h0.1l0.1-0.2l-0.3-0.3
		l-0.4-0.3v-0.1h0.3l0.3,0.1l0.1-0.1l-0.2-0.1l-0.2-0.1h-0.2v0.1h-0.2l-0.1-0.2v-0.1h0.5l0.3,0.1l0.3-0.1l0.2,0.3v0.3l0.4,0.2
		l0.1,0.2l0.2-0.1l0.2,0.3l-0.3,0.2l0.3,0.1l0.1,0.2l-0.2,0.3l-0.2-0.1l0.2,0.4l-0.1,0.2h0.4v0.2l-0.2,0.3v0.2h0.2l0.2,0.5v-0.5
		l0.2-0.1l0.1-0.4l0.3-0.2v0.4h0.3l0.2-0.2v-0.5l-0.2-0.2l-0.1-0.7l0.4-0.3l0.2,0.2v0.6l0.2,0.1v0.5h0.2l0.3-0.4l-0.1-0.3l0.1-0.3
		l0.6-0.4l0.3,0.2v0.3l0.1,0.1v0.2l0.3,0.5l-0.1,0.7l0.3-0.8l-0.3-0.6l0.1-0.5h0.2l0.1,0.1l0.2-0.1l0.3,0.5h0.3l0.2-0.4l0.2-0.3
		l0.2,0.1v0.3l0.3-0.1h0.3l0.1-0.2l-0.1-0.3l0.1-0.3l0.2,0.1l0.2-0.2l0.3,0.1l0.1,0.3l0.1,0.2l-0.1,0.2l0.2,0.3h0.2l0.1-0.3l0.5-0.5
		l0.2-0.1l0.3,0.1l-0.3,0.1l-0.1,0.1v0.2l-0.3,0.1l0.1,0.3l0.3,0.1l0.2-0.2l0.2,0.1l0.1,0.4l-0.2,0.1l-0.2,0.3l0.1,0.3l0.1-0.1h0.4
		v0.2l-0.2,0.3l0.2-0.2l0.6,0.1l0.3,0.3l-0.1,0.2L261.1,396.4z M252.6,401.5l0.1,0.3l-0.2,0.1l-0.1-0.2L252.6,401.5L252.6,401.5z
		 M281.8,453.9l0.1,0.2l-0.2,0.2l-0.2,0.2l-0.2-0.2V454L281.8,453.9z M283.3,452.7l0.4,0.1h0.3l-0.4,0.3l-0.1,0.4l-0.2-0.2l-0.3-0.1
		l0.1-0.3L283.3,452.7z M284.9,452.1l0.3,0.3l-0.1,0.2l-0.2-0.1h-0.5l0.1-0.2L284.9,452.1z M291,450.1v-0.2l0.1-0.1l0.1-0.2l0.1,0.1
		l-0.1,0.1v0.1L291,450.1z M292.7,448.4v0.4l-0.2,0.5l-0.3,0.1l-0.5-0.2l-0.1-0.1l0.1-0.2h0.1l-0.1-0.1h-0.1v-0.2l-0.2-0.1l-0.1-0.2
		l0.1-0.1v-0.1l-0.2-0.1l-0.1-0.2h0.2l0.1-0.1l-0.2-0.2l0.2-0.4l0.5-0.2l0.2-0.2l0.2,0.2h0.1v-0.3l-0.1-0.2l0.1-0.3h0.2l0.1,0.4v0.4
		l0.2,0.6L292.7,448.4z M291,450.3l0.4,0.2h0.3l0.6-0.7h0.2l0.3,0.2l0.1-0.1l0.2,0.4l0.2,0.2l0.1,0.4v0.2l-0.3,0.2l0.4,0.4l-0.1,0.6
		l0.1,0.6l-0.1,0.2v0.6l-0.1,0.2h-0.2l-0.2-0.2h-0.3l-0.1,0.2v0.4l-0.2,0.1l-0.2-0.1l-0.1,0.1l-0.2-0.2l-0.2-0.6l-0.1-0.2l0.1-0.5
		l0.2-0.2v-0.1h-0.3l-0.1-0.2l0.2-0.2v-0.4l-0.2-0.2l-0.1-0.2l-0.2-0.2l0.1-0.2v-0.7H291z M294.1,446.6l0.1-0.1l0.1,0.2v0.2h-0.2
		l-0.3,0.1l-0.2-0.1l0.1-0.1L294.1,446.6z M295.2,447.7l-0.2-0.1l0.1-0.1L295.2,447.7z M298.1,455.8l0.1,0.1l0.2-0.2h0.3l0.3,0.2
		l0.4,0.1l0.6-0.2h0.7l0.3-0.4l0.3,0.2h0.2l0.4-0.4l0.2,0.3l-0.1,0.4l-0.3,0.3l-0.3,0.8l0.3,0.4v0.3l-0.2,0.2v0.4h-0.3l-0.7-0.3
		l-0.1-0.2l-0.3-0.2l-0.1,0.1l-0.7-0.3l-0.3-0.3l-0.3-0.1l-0.6-0.4l-0.3,0.1l-0.3-0.3v-0.5L298.1,455.8z M301.1,459.8v0.2l-0.2,0.2
		l-0.3-0.3v-0.2L301.1,459.8z M308.6,452.6v0.3l0.2,0.2l0.2,0.1v0.1l-0.1,0.1l-0.3-0.1l-0.3-0.3v-0.1l-0.2-0.1v-0.2l0.3-0.1
		L308.6,452.6z M309.9,454.9L309.9,454.9l-0.1-0.1l0.1-0.3h0.1v0.3L309.9,454.9L309.9,454.9z M309.8,455.3v-0.4l0.2,0.1l0.1,0.2v0.1
		l0.1,0.1v0.1l0.1,0.1l-0.1,0.2l-0.2-0.1h-0.2v-0.2l-0.1-0.1v0.2l-0.1,0.1l-0.1-0.1v-0.3l0.2-0.1L309.8,455.3z M310.1,456.2l0.2,0.1
		l0.1,0.2l0.1,0.1h-0.2v0.1h-0.2l-0.2-0.2v-0.2L310.1,456.2z M313.6,458.6l0.1,0.1h-0.1V458.6z M313.6,458.9L313.6,458.9l0.1,0.1
		l0.2,0.2l-0.1,0.2l-0.2-0.1v-0.2l-0.1-0.1L313.6,458.9z M318.2,457.1l-0.1-0.1v-0.2l0.3-0.1l-0.1,0.2L318.2,457.1z M317.8,454.9
		v-0.1l0.2-0.1l0.2,0.1l0.1,0.1l0.1,0.4l-0.1,0.3l-0.2,0.1l-0.2-0.1v-0.1l0.1-0.1v-0.2L317.8,454.9z M317.7,451.3l0.1,0.1v0.2
		l-0.3,0.1l-0.2-0.1l0.1-0.1h0.2L317.7,451.3z M317.4,457.1l-0.1,0.1v-0.1H317.4z M317.6,457.5v0.2l-0.1,0.2h-0.1l-0.1-0.2l0.2-0.2
		H317.6z M317.3,451l0.2,0.1v0.1l-0.2,0.1l-0.3-0.1l0.1-0.1L317.3,451z M317.1,457.7l-0.1,0.2l-0.1-0.1l0.1-0.2h0.2L317.1,457.7z
		 M317.1,457l-0.2-0.1l-0.1-0.1l0.1-0.1l0.1,0.1L317.1,457z M316.6,451.9l0.1,0.1l0.2-0.1l0.2,0.1l-0.2,0.2v0.3l-0.2-0.1h-0.1
		l-0.1-0.1l-0.1-0.2l0.1-0.1L316.6,451.9z M316.3,456.2l0.1,0.2l0.3,0.2v0.2h-0.1l-0.3-0.3l-0.1-0.1l0.1-0.1V456.2z M316.1,454.5
		H316l-0.1-0.2h-0.1l-0.2-0.3h0.1l0.1,0.1l0.2,0.1L316.1,454.5z M315.7,450.5l0.2,0.1v0.2l-0.2,0.1l-0.1-0.1h-0.2l0.1-0.3
		L315.7,450.5z M315.5,456.9l0.1-0.1l0.1,0.2l-0.2,0.1V456.9z M316,458.6l-0.2,0.1h-0.1l0.1-0.2h0.2V458.6z M315.7,457.1h0.1v0.1
		l-0.1,0.1V457.1z M315.9,457.8l-0.1-0.1l0.1-0.1V457.8z M313.9,453.7l0.1-0.1l0.1,0.1l-0.1,0.2L313.9,453.7z M314.3,453.7l0.2,0.1
		l0.1,0.2l-0.1,0.1L314.3,453.7L314.3,453.7z M315.7,455.8h0.3l-0.1,0.3l-0.1-0.1l-0.1,0.1l-0.2-0.2l-0.1-0.2v-0.2l-0.1-0.1
		l-0.2-0.3L315,455h-0.2l-0.3-0.2l-0.1-0.2h-0.2l-0.1-0.2l-0.1-0.1l-0.1-0.1l-0.1-0.1h-0.3h-0.1l0.2-0.2l0.4-0.1l0.2,0.3l0.3,0.1
		l0.3,0.1v0.1h0.2v-0.1l0.4,0.4l0.1,0.2v0.1v0.2v0.2L315.7,455.8L315.7,455.8z M318.7,453.7v0.3h-0.3l-0.2-0.1l0.1-0.1l0.1-0.1v-0.2
		h-0.2l-0.1,0.2v0.2H318h-0.1l-0.2-0.2l0.1-0.2l0.4-0.1l0.2-0.1l0.3-0.1l0.1,0.1l-0.1,0.2h0.1L318.7,453.7z M314.8,460.3l0.1,0.2
		h0.1v-0.2v-0.1h0.1l0.1,0.2h0.2l0.1-0.1h-0.1v-0.1h0.2l0.1,0.2l-0.1,0.1h0.2l0.1,0.1l0.2,0.1l0.3-0.1l0.4-0.2h0.4l0.3,0.1l0.4,0.1
		h0.2l0.1,0.2v0.1h0.2l0.2-0.1l0.1,0.1l0.2-0.2v-0.2l0.1-0.1v0.1l0.1,0.2l-0.1,0.2l-0.2,0.1h-0.4h-0.6h-0.4l-0.3,0.2h-0.4V461
		l-0.3-0.2l-0.3-0.1l-0.2,0.1l-0.2-0.1l-0.5,0.1l-0.2-0.1v-0.2l0.1-0.2H314.8z M318.7,458.6l0.1-0.1l0.2-0.1l0.1,0.1l-0.1,0.2
		l-0.2,0.1L318.7,458.6z M318.9,456.6h-0.2H318.9l0.2-0.3h0.2l0.2,0.2l0.1-0.1h0.1v0.1l-0.2,0.1l-0.1,0.1h-0.2l-0.1-0.1L318.9,456.6
		z M320.2,459.7v0.2v0.1v-0.1V459.7z M320.2,460.1l0.1,0.2l-0.1,0.3h-0.1l-0.1-0.3l-0.1-0.2l0.2-0.2L320.2,460.1z M321,458.4v0.1
		h-0.1h-0.1l0.1-0.1H321z M320.9,459.4v-0.2l0.3-0.3l0.4-0.1l0.2-0.1v0.2l-0.1,0.1l-0.1,0.2l-0.1,0.1v0.1h-0.1l-0.2,0.2l-0.1,0.2
		H321l-0.1-0.1L320.9,459.4L320.9,459.4z M328.5,460.8l0.3,0.1l0.2-0.1l0.1-0.2v-0.2h0.3l0.3,0.2h0.4l0.7-0.3l0.5-0.3h0.2l0.1,0.1
		l-0.2,0.1l-0.4,0.2l-0.4,0.4l0.1,0.3v0.3h-0.4l-0.2,0.1l-0.3,0.3l-0.4,0.1l-0.2,0.1l-0.2-0.1h-0.4l-0.4-0.2l-0.2-0.3v-0.3h0.2
		L328.5,460.8z"/>
</g>
</svg>
