<svg xmlns="http://www.w3.org/2000/svg" xmlns:xlink="http://www.w3.org/1999/xlink" baseProfile="tiny" preserveAspectRatio="xMinYMin meet" viewBox="20 20" width="20" height="20">
  <path xmlns="http://www.w3.org/2000/svg" d="M3.6 14.5c.9-.2 3.1-.6 3.3-1.1.1-.2.1-.4.1-.7.5.4 1.2.7 2 .8h.1c.7 0 1.5-.3 2.2-.8 0 .3 0 .6.1.7.2.5 2.2 1 3 1.1.2 0 .4.1.6.2v-1.1h-.2c-.9-.2-2.1-.5-2.5-.7v-1.2l.1-.1c.6-.7.8-1.4.9-1.9.4-.3.7-.7 1-1.7.1-.6.2-1.3-.2-1.8.4-3.5-1.9-5.3-3.2-5.7-.5-.1-1-.2-1.4-.2h-.6C8.4.2 8 .2 7.5.4 6.1.9 3.9 2.6 4.2 6.1c-.4.6-.3 1.3-.2 1.8.2 1 .6 1.4 1 1.7.1.5.4 1.2.9 1.9l.1.1v1.2c-.4.2-1.6.6-2.5.7-1.1.2-2.5.7-3.4 2.9-.1.4-.1.8.2 1.2.8 1.2 5.3 2 8.9 2 1.6 0 3.3-.2 4.9-.4v-1.1c-1.4.3-3.1.5-4.9.5-4.1 0-8.1-1-7.8-1.8.7-1.8 1.4-2.2 2.2-2.3zm2.3-5.6c-.1 0-.6-.1-.9-1.2-.2-.9 0-1 .2-1h.1c-.7-4.1 2.5-5.3 2.5-5.3.4-.1.8-.2 1.1-.2h.6c.3 0 .7 0 1.1.2 0 0 3.2 1.1 2.4 5.2h.1c.2 0 .4.1.2 1-.3 1.1-.7 1.2-.8 1.2s-.1 1.1-1 2.2c-.8.8-1.6 1.2-2.3 1.1-1 0-1.7-.7-2.1-1.1-1.2-1-1.2-2.1-1.2-2.1zm14.9 6.9v-1.7c0-1.1-1-2-2.3-2-1.2 0-2.3.9-2.3 2v1.7s-1.2 0-1.2.1v5.9c0 .1.1.1.2.1h6.6c.1 0 .2-.1.2-.1v-5.9c0-.1-1.2-.1-1.2-.1zm-1.8 4h-1v-2h1v2zm.8-4h-2.6v-1.7c0-.7.6-1.2 1.3-1.2s1.3.5 1.3 1.2v1.7z" fill="#595959"/>
</svg>
